<svg width="25" height="24" viewBox="0 0 25 24" fill="none" xmlns="http://www.w3.org/2000/svg">
<g clip-path="url(#clip0_254_3894)">
<path d="M21.505 3.5C21.1296 2.47523 20.449 1.59024 19.5549 0.964389C18.6609 0.338539 17.5964 0.00194216 16.505 0L8.492 0C7.40201 0.00357573 6.33928 0.340932 5.44679 0.966672C4.55431 1.59241 3.8749 2.47651 3.5 3.5L0.916 10.59C0.640524 11.3477 0.499735 12.1478 0.5 12.954V15.682C0.503066 16.6774 0.785994 17.6518 1.31647 18.494C1.84695 19.3362 2.6036 20.0123 3.5 20.445V22C3.5 22.5304 3.71071 23.0391 4.08579 23.4142C4.46086 23.7893 4.96957 24 5.5 24C6.03043 24 6.53914 23.7893 6.91421 23.4142C7.28929 23.0391 7.5 22.5304 7.5 22V21H17.5V22C17.5 22.5304 17.7107 23.0391 18.0858 23.4142C18.4609 23.7893 18.9696 24 19.5 24C20.0304 24 20.5391 23.7893 20.9142 23.4142C21.2893 23.0391 21.5 22.5304 21.5 22V20.445C22.3964 20.0123 23.153 19.3362 23.6835 18.494C24.214 17.6518 24.4969 16.6774 24.5 15.682V12.954C24.5003 12.1478 24.3595 11.3477 24.084 10.59L21.505 3.5ZM6.313 4.526C6.47672 4.07944 6.77335 3.69377 7.16294 3.42093C7.55253 3.14809 8.01637 3.00118 8.492 3H16.508C16.9836 3.00118 17.4475 3.14809 17.8371 3.42093C18.2267 3.69377 18.5233 4.07944 18.687 4.526L21.04 11H3.96L6.313 4.526ZM19.182 18H5.818C5.20347 17.9992 4.61434 17.7547 4.1798 17.3202C3.74527 16.8857 3.50079 16.2965 3.5 15.682V14H5.5V14.5C5.5 14.8978 5.65804 15.2794 5.93934 15.5607C6.22064 15.842 6.60218 16 7 16C7.39783 16 7.77936 15.842 8.06066 15.5607C8.34197 15.2794 8.5 14.8978 8.5 14.5V14H16.5V14.5C16.5 14.8978 16.658 15.2794 16.9393 15.5607C17.2206 15.842 17.6022 16 18 16C18.3978 16 18.7794 15.842 19.0607 15.5607C19.342 15.2794 19.5 14.8978 19.5 14.5V14H21.5V15.682C21.4992 16.2965 21.2547 16.8857 20.8202 17.3202C20.3857 17.7547 19.7965 17.9992 19.182 18Z" fill="#092C4C"/>
</g>
<defs>
<clipPath id="clip0_254_3894">
<rect width="24" height="24" fill="white" transform="translate(0.5)"/>
</clipPath>
</defs>
</svg>
