<svg width="32" height="31" viewBox="0 0 32 31" fill="none" xmlns="http://www.w3.org/2000/svg">
<rect width="32" height="31" rx="15.5" fill="white"/>
<path d="M16.4665 22.2662L22.7169 16.0157C24.2525 14.4724 24.4763 11.9491 23.0256 10.3363C22.6618 9.92986 22.2189 9.60188 21.724 9.37239C21.2292 9.1429 20.6927 9.01672 20.1474 9.00155C19.6022 8.98638 19.0595 9.08255 18.5527 9.28418C18.0458 9.48581 17.5854 9.78866 17.1995 10.1742L16.0266 11.3549L15.0157 10.3363C13.4724 8.80068 10.9491 8.5769 9.33629 10.0276C8.92986 10.3915 8.60188 10.8343 8.37239 11.3292C8.1429 11.824 8.01672 12.3605 8.00155 12.9058C7.98638 13.4511 8.08255 13.9937 8.28418 14.5005C8.48581 15.0074 8.78866 15.4678 9.17424 15.8537L15.5868 22.2662C15.7038 22.3821 15.8619 22.4471 16.0266 22.4471C16.1913 22.4471 16.3494 22.3821 16.4665 22.2662V22.2662Z" stroke="#75BEBD" stroke-width="1.5" stroke-linecap="round" stroke-linejoin="round"/>
</svg>
