<svg width="40" height="40" viewBox="0 0 40 40" fill="none" xmlns="http://www.w3.org/2000/svg">
<path d="M20.0002 0.0114746C16.7027 0.0118468 13.4793 0.990423 10.738 2.82337C7.99681 4.65631 5.86091 7.26123 4.60065 10.3085C3.34038 13.3558 3.01239 16.7084 3.65819 19.9421C4.30399 23.1758 5.89454 26.1453 8.22858 28.4748L16.6036 36.6664H8.33358V39.9998H31.6669V36.6664H23.3969L31.7852 28.4614C34.1155 26.1305 35.7023 23.1609 36.3451 19.9282C36.9878 16.6955 36.6576 13.3448 35.3962 10.2998C34.1349 7.25472 31.9989 4.65203 29.2585 2.82075C26.5181 0.989474 23.2962 0.0118488 20.0002 0.0114746ZM29.4419 26.0914L20.0002 35.3331L10.5719 26.1048C8.70785 24.2406 7.43823 21.8657 6.92352 19.2802C6.40881 16.6947 6.6721 14.0146 7.68012 11.5787C8.68815 9.14278 10.3957 7.06035 12.5868 5.59458C14.778 4.12881 17.3546 3.3455 19.9908 3.34364C22.6271 3.34177 25.2047 4.12145 27.398 5.58412C29.5913 7.04678 31.3017 9.1268 32.3132 11.5613C33.3246 13.9958 33.5917 16.6755 33.0807 19.2617C32.5696 21.848 31.3033 24.2247 29.4419 26.0914ZM11.6669 10.6365V21.0298L20.0002 25.1964L28.3336 21.0298V10.6365L20.0002 6.4698L11.6669 10.6365ZM25.0002 18.9698L20.0002 21.4698L15.0002 18.9698V12.6965L15.1969 12.5981L20.0002 14.9998L24.8036 12.5981L25.0002 12.6965V18.9698Z" fill="#0D2855"/>
</svg>
