<svg width="40" height="39" viewBox="0 0 40 39" fill="none" xmlns="http://www.w3.org/2000/svg">
<g filter="url(#filter0_d_254_3571)">
<rect x="4" width="32" height="31" rx="15.5" fill="white"/>
<g clip-path="url(#clip0_254_3571)">
<path d="M24.8888 17.7784C24.3847 17.7788 23.8883 17.9019 23.4425 18.137C22.9966 18.372 22.6146 18.7121 22.3295 19.1277L17.9901 17.1684C18.2983 16.4242 18.2995 15.5882 17.9935 14.8431L22.3268 12.8737C22.7494 13.4849 23.377 13.9244 24.0958 14.1124C24.8147 14.3005 25.5771 14.2247 26.2449 13.8987C26.9126 13.5728 27.4414 13.0183 27.7353 12.3359C28.0293 11.6535 28.0689 10.8883 27.847 10.1792C27.6251 9.47006 27.1564 8.86394 26.5259 8.47078C25.8954 8.07762 25.1449 7.92346 24.4105 8.03626C23.6761 8.14906 23.0064 8.52136 22.5229 9.08561C22.0395 9.64987 21.7743 10.3687 21.7755 11.1117C21.7783 11.2876 21.7961 11.4629 21.8288 11.6357L17.2221 13.7291C16.7797 13.3146 16.2258 13.0383 15.6285 12.9343C15.0312 12.8302 14.4165 12.9029 13.86 13.1434C13.3034 13.3839 12.8293 13.7817 12.4957 14.288C12.1622 14.7943 11.9838 15.387 11.9824 15.9932C11.9811 16.5995 12.1569 17.193 12.4882 17.7007C12.8195 18.2085 13.292 18.6084 13.8474 18.8513C14.4029 19.0943 15.0173 19.1696 15.615 19.0682C16.2128 18.9668 16.7679 18.693 17.2121 18.2804L21.8308 20.3657C21.7987 20.5384 21.7811 20.7135 21.7781 20.8891C21.778 21.5045 21.9604 22.1061 22.3022 22.6179C22.644 23.1296 23.1299 23.5285 23.6985 23.7641C24.267 23.9997 24.8927 24.0614 25.4963 23.9413C26.0999 23.8213 26.6543 23.525 27.0895 23.0898C27.5247 22.6546 27.821 22.1002 27.941 21.4966C28.0611 20.893 27.9994 20.2673 27.7638 19.6988C27.5282 19.1302 27.1294 18.6443 26.6176 18.3025C26.1058 17.9607 25.5042 17.7783 24.8888 17.7784ZM24.8888 9.33374C25.2405 9.33361 25.5843 9.43778 25.8768 9.63307C26.1692 9.82835 26.3972 10.106 26.5319 10.4309C26.6666 10.7557 26.7019 11.1133 26.6334 11.4582C26.5648 11.8031 26.3956 12.12 26.1469 12.3687C25.8983 12.6175 25.5815 12.7869 25.2366 12.8555C24.8917 12.9242 24.5341 12.889 24.2092 12.7545C23.8843 12.6199 23.6065 12.392 23.4111 12.0996C23.2157 11.8072 23.1115 11.4634 23.1115 11.1117C23.1118 10.6404 23.2992 10.1885 23.6324 9.85513C23.9656 9.52179 24.4175 9.33427 24.8888 9.33374ZM15.1115 17.7784C14.7598 17.7785 14.4159 17.6744 14.1235 17.4791C13.831 17.2838 13.603 17.0062 13.4683 16.6813C13.3336 16.3564 13.2983 15.9989 13.3669 15.6539C13.4354 15.309 13.6047 14.9921 13.8533 14.7434C14.1019 14.4947 14.4188 14.3253 14.7637 14.2566C15.1086 14.188 15.4661 14.2231 15.791 14.3577C16.116 14.4922 16.3937 14.7201 16.5891 15.0125C16.7845 15.3049 16.8888 15.6487 16.8888 16.0004C16.8883 16.4717 16.7009 16.9235 16.3677 17.2568C16.0345 17.5901 15.5827 17.7777 15.1115 17.7784ZM24.8888 22.6671C24.5371 22.6671 24.1934 22.5628 23.901 22.3674C23.6086 22.1721 23.3807 21.8944 23.2461 21.5695C23.1116 21.2446 23.0763 20.8871 23.1449 20.5422C23.2136 20.1973 23.3829 19.8805 23.6315 19.6318C23.8802 19.3832 24.197 19.2138 24.5419 19.1452C24.8868 19.0766 25.2443 19.1118 25.5692 19.2464C25.8941 19.381 26.1718 19.6089 26.3671 19.9013C26.5625 20.1937 26.6668 20.5374 26.6668 20.8891C26.6664 21.3605 26.479 21.8126 26.1456 22.1459C25.8123 22.4793 25.3602 22.6667 24.8888 22.6671Z" fill="#75BEBD"/>
</g>
</g>
<defs>
<filter id="filter0_d_254_3571" x="0" y="0" width="40" height="39" filterUnits="userSpaceOnUse" color-interpolation-filters="sRGB">
<feFlood flood-opacity="0" result="BackgroundImageFix"/>
<feColorMatrix in="SourceAlpha" type="matrix" values="0 0 0 0 0 0 0 0 0 0 0 0 0 0 0 0 0 0 127 0" result="hardAlpha"/>
<feOffset dy="4"/>
<feGaussianBlur stdDeviation="2"/>
<feComposite in2="hardAlpha" operator="out"/>
<feColorMatrix type="matrix" values="0 0 0 0 0 0 0 0 0 0 0 0 0 0 0 0 0 0 0.25 0"/>
<feBlend mode="normal" in2="BackgroundImageFix" result="effect1_dropShadow_254_3571"/>
<feBlend mode="normal" in="SourceGraphic" in2="effect1_dropShadow_254_3571" result="shape"/>
</filter>
<clipPath id="clip0_254_3571">
<rect width="16" height="16" fill="white" transform="translate(12 8)"/>
</clipPath>
</defs>
</svg>
