<svg width="40" height="40" viewBox="0 0 40 40" fill="none" xmlns="http://www.w3.org/2000/svg">
<g clip-path="url(#clip0_316_3267)">
<path d="M31.6667 6.66724H8.33333C6.12401 6.66988 4.00593 7.54871 2.4437 9.11094C0.88147 10.6732 0.00264643 12.7912 0 15.0006L0 25.0006C0.00264643 27.2099 0.88147 29.328 2.4437 30.8902C4.00593 32.4524 6.12401 33.3313 8.33333 33.3339H31.6667C33.876 33.3313 35.9941 32.4524 37.5563 30.8902C39.1185 29.328 39.9974 27.2099 40 25.0006V15.0006C39.9974 12.7912 39.1185 10.6732 37.5563 9.11094C35.9941 7.54871 33.876 6.66988 31.6667 6.66724ZM6.66667 28.3339C6.33703 28.3339 6.0148 28.2362 5.74072 28.053C5.46663 27.8699 5.25301 27.6096 5.12687 27.305C5.00072 27.0005 4.96772 26.6654 5.03202 26.3421C5.09633 26.0188 5.25507 25.7218 5.48816 25.4887C5.72124 25.2556 6.01821 25.0969 6.34152 25.0326C6.66482 24.9683 6.99993 25.0013 7.30447 25.1274C7.60902 25.2536 7.86931 25.4672 8.05245 25.7413C8.23558 26.0154 8.33333 26.3376 8.33333 26.6672C8.33333 27.1093 8.15774 27.5332 7.84518 27.8458C7.53262 28.1583 7.10869 28.3339 6.66667 28.3339ZM6.66667 15.0006C6.33703 15.0006 6.0148 14.9028 5.74072 14.7197C5.46663 14.5366 5.25301 14.2763 5.12687 13.9717C5.00072 13.6672 4.96772 13.3321 5.03202 13.0088C5.09633 12.6855 5.25507 12.3885 5.48816 12.1554C5.72124 11.9223 6.01821 11.7636 6.34152 11.6993C6.66482 11.635 6.99993 11.668 7.30447 11.7941C7.60902 11.9202 7.86931 12.1339 8.05245 12.408C8.23558 12.682 8.33333 13.0043 8.33333 13.3339C8.33333 13.7759 8.15774 14.1999 7.84518 14.5124C7.53262 14.825 7.10869 15.0006 6.66667 15.0006ZM20 26.6672C18.6815 26.6672 17.3925 26.2762 16.2962 25.5437C15.1999 24.8112 14.3454 23.77 13.8408 22.5518C13.3362 21.3336 13.2042 19.9932 13.4614 18.7C13.7187 17.4068 14.3536 16.2189 15.286 15.2865C16.2183 14.3542 17.4062 13.7192 18.6994 13.462C19.9926 13.2048 21.333 13.3368 22.5512 13.8414C23.7694 14.346 24.8106 15.2004 25.5431 16.2968C26.2757 17.3931 26.6667 18.682 26.6667 20.0006C26.6667 21.7687 25.9643 23.4644 24.714 24.7146C23.4638 25.9649 21.7681 26.6672 20 26.6672ZM33.3333 28.3339C33.0037 28.3339 32.6815 28.2362 32.4074 28.053C32.1333 27.8699 31.9197 27.6096 31.7935 27.305C31.6674 27.0005 31.6344 26.6654 31.6987 26.3421C31.763 26.0188 31.9217 25.7218 32.1548 25.4887C32.3879 25.2556 32.6849 25.0969 33.0082 25.0326C33.3315 24.9683 33.6666 25.0013 33.9711 25.1274C34.2757 25.2536 34.536 25.4672 34.7191 25.7413C34.9023 26.0154 35 26.3376 35 26.6672C35 27.1093 34.8244 27.5332 34.5118 27.8458C34.1993 28.1583 33.7754 28.3339 33.3333 28.3339ZM33.3333 15.0006C33.0037 15.0006 32.6815 14.9028 32.4074 14.7197C32.1333 14.5366 31.9197 14.2763 31.7935 13.9717C31.6674 13.6672 31.6344 13.3321 31.6987 13.0088C31.763 12.6855 31.9217 12.3885 32.1548 12.1554C32.3879 11.9223 32.6849 11.7636 33.0082 11.6993C33.3315 11.635 33.6666 11.668 33.9711 11.7941C34.2757 11.9202 34.536 12.1339 34.7191 12.408C34.9023 12.682 35 13.0043 35 13.3339C35 13.7759 34.8244 14.1999 34.5118 14.5124C34.1993 14.825 33.7754 15.0006 33.3333 15.0006ZM23.3333 20.0006C23.3333 20.6598 23.1378 21.3043 22.7716 21.8525C22.4053 22.4006 21.8847 22.8279 21.2756 23.0802C20.6665 23.3325 19.9963 23.3985 19.3497 23.2699C18.7031 23.1412 18.1092 22.8238 17.643 22.3576C17.1768 21.8914 16.8593 21.2975 16.7307 20.6509C16.6021 20.0043 16.6681 19.334 16.9204 18.725C17.1727 18.1159 17.5999 17.5953 18.1481 17.229C18.6963 16.8627 19.3407 16.6672 20 16.6672C20.8841 16.6672 21.7319 17.0184 22.357 17.6435C22.9821 18.2687 23.3333 19.1165 23.3333 20.0006Z" fill="#0D2855"/>
</g>
<defs>
<clipPath id="clip0_316_3267">
<rect width="40" height="40" fill="white"/>
</clipPath>
</defs>
</svg>
