<svg width="40" height="40" viewBox="0 0 40 40" fill="none" xmlns="http://www.w3.org/2000/svg">
<g clip-path="url(#clip0_316_3268)">
<path d="M27.6421 16.0265L25.3505 9.99984H29.3871C30.922 10.0035 32.4345 10.3674 33.8032 11.0621C35.1718 11.7568 36.3582 12.7631 37.2671 13.9998L38.5788 15.7915C39.1378 16.5541 39.5452 17.4169 39.7788 18.3332H28.2538C28.1355 17.5441 27.9304 16.7705 27.6421 16.0265ZM20.0005 6.66651C20.4425 6.66651 20.8664 6.49091 21.179 6.17835C21.4916 5.86579 21.6671 5.44187 21.6671 4.99984V1.66651C21.6671 1.22448 21.4916 0.800558 21.179 0.487997C20.8664 0.175437 20.4425 -0.000158175 20.0005 -0.000158175C19.5585 -0.000158175 19.1345 0.175437 18.822 0.487997C18.5094 0.800558 18.3338 1.22448 18.3338 1.66651V4.99984C18.3338 5.44187 18.5094 5.86579 18.822 6.17835C19.1345 6.49091 19.5585 6.66651 20.0005 6.66651ZM24.5371 17.2382L21.7855 9.99984H18.2305L15.4338 17.4198C15.3265 17.7186 15.2375 18.0236 15.1671 18.3332H24.8688C24.7855 17.9605 24.6747 17.5945 24.5371 17.2382ZM27.5888 6.49984C27.7856 6.59878 28 6.65773 28.2197 6.6733C28.4394 6.68886 28.66 6.66073 28.8688 6.59052C29.0775 6.52032 29.2703 6.40943 29.4359 6.26428C29.6016 6.11912 29.7368 5.94258 29.8338 5.74484L31.5005 2.41151C31.6981 2.01589 31.7304 1.55799 31.5904 1.13854C31.4503 0.719079 31.1494 0.372428 30.7538 0.174842C30.3582 -0.0227445 29.9003 -0.0550808 29.4808 0.0849463C29.0614 0.224973 28.7147 0.525894 28.5171 0.921508L26.8505 4.25484C26.751 4.45061 26.6911 4.66412 26.6744 4.8831C26.6576 5.10208 26.6843 5.32221 26.7529 5.53083C26.8216 5.73946 26.9307 5.93246 27.0742 6.09876C27.2176 6.26505 27.3925 6.40136 27.5888 6.49984ZM19.9805 31.4782L24.6238 22.7232C24.7417 22.378 24.8347 22.0249 24.9021 21.6665H15.0005C15.0754 22.0958 15.1869 22.5179 15.3338 22.9282L19.9805 31.4782ZM12.3338 16.2148L14.6671 9.99984H10.6388C9.13552 10.0038 7.65319 10.3528 6.30607 11.02C4.95894 11.6872 3.78299 12.6548 2.86881 13.8482L1.50048 15.6382C0.897589 16.4397 0.46691 17.3573 0.235482 18.3332H11.7355C11.8636 17.6088 12.064 16.8992 12.3338 16.2148ZM28.2821 21.6665C28.1772 22.463 27.9849 23.2454 27.7088 23.9998C27.6838 24.0665 21.4488 35.7898 21.4438 35.7915C21.308 36.0552 21.1025 36.2767 20.8496 36.4317C20.5967 36.5868 20.3062 36.6695 20.0095 36.6709C19.7129 36.6722 19.4216 36.5922 19.1672 36.4395C18.9129 36.2868 18.7054 36.0673 18.5671 35.8048C18.5671 35.8048 12.2771 24.2848 12.2505 24.2132C11.9519 23.391 11.7527 22.536 11.6571 21.6665H0.202148C0.510379 23.1578 1.28563 24.5122 2.41548 25.5332L15.7321 38.3782C16.9018 39.4212 18.415 39.9963 19.9821 39.9932C21.5825 39.99 23.1255 39.3966 24.3155 38.3265L37.5421 25.6048C38.7012 24.5683 39.4983 23.1883 39.8171 21.6665H28.2821ZM10.1755 5.74484C10.3731 6.14156 10.7202 6.44354 11.1404 6.58435C11.5606 6.72516 12.0196 6.69326 12.4163 6.49568C12.813 6.29809 13.115 5.951 13.2558 5.53076C13.3966 5.11052 13.3647 4.65156 13.1671 4.25484L11.5005 0.921508C11.4026 0.72562 11.2672 0.55092 11.1018 0.407382C10.9365 0.263845 10.7445 0.154281 10.5368 0.0849463C10.1173 -0.0550808 9.65943 -0.0227445 9.26381 0.174842C8.8682 0.372428 8.56728 0.719079 8.42725 1.13854C8.28723 1.55799 8.31956 2.01589 8.51715 2.41151L10.1755 5.74484Z" fill="#0D2855"/>
</g>
<defs>
<clipPath id="clip0_316_3268">
<rect width="40" height="40" fill="white"/>
</clipPath>
</defs>
</svg>
