<svg width="72" height="72" viewBox="0 0 72 72" fill="none" xmlns="http://www.w3.org/2000/svg">
<circle cx="36" cy="36" r="36" fill="#0D2855"/>
<g clip-path="url(#clip0_316_3298)">
<path d="M44.8769 49.0908C44.4733 49.0896 44.0739 49.0086 43.7019 48.8522C43.3298 48.6959 42.9924 48.4674 42.7092 48.1798L36.0001 41.51L29.291 48.1842C28.8602 48.6214 28.3076 48.9186 27.7053 49.0371C27.1031 49.1556 26.4791 49.0899 25.9147 48.8486C25.3447 48.6193 24.8571 48.2235 24.5155 47.7128C24.174 47.2022 23.9944 46.6004 24.0001 45.986V28.3635C24.0001 26.9168 24.5748 25.5295 25.5977 24.5065C26.6207 23.4836 28.008 22.9089 29.4547 22.9089H42.5456C43.2619 22.9089 43.9712 23.05 44.633 23.3241C45.2947 23.5983 45.896 24 46.4025 24.5065C46.909 25.013 47.3108 25.6143 47.5849 26.2761C47.8591 26.9379 48.0001 27.6472 48.0001 28.3635V45.986C48.0062 46.5999 47.8273 47.2013 47.4865 47.7119C47.1458 48.2225 46.6591 48.6186 46.09 48.8486C45.7057 49.0093 45.2933 49.0916 44.8769 49.0908ZM29.4547 25.0908C28.5867 25.0908 27.7543 25.4356 27.1405 26.0493C26.5268 26.6631 26.182 27.4955 26.182 28.3635V45.986C26.1816 46.1678 26.235 46.3456 26.3357 46.497C26.4363 46.6484 26.5795 46.7666 26.7473 46.8367C26.915 46.9067 27.0997 46.9255 27.2781 46.8906C27.4565 46.8557 27.6206 46.7687 27.7496 46.6406L35.2365 39.1995C35.4409 38.9963 35.7174 38.8823 36.0056 38.8823C36.2938 38.8823 36.5703 38.9963 36.7747 39.1995L44.2529 46.6384C44.3819 46.7665 44.5459 46.8535 44.7243 46.8884C44.9027 46.9233 45.0875 46.9045 45.2552 46.8345C45.4229 46.7644 45.5662 46.6462 45.6668 46.4949C45.7674 46.3435 45.8209 46.1656 45.8205 45.9838V28.3635C45.8205 27.4955 45.4757 26.6631 44.8619 26.0493C44.2482 25.4356 43.4158 25.0908 42.5478 25.0908H29.4547Z" fill="#E8F9FD"/>
</g>
<circle cx="36" cy="36" r="36" fill="#0D2855"/>
<g clip-path="url(#clip1_316_3298)">
<path d="M43.6365 26.1816H28.3637C26.9176 26.1834 25.5312 26.7586 24.5087 27.7812C23.4861 28.8037 22.9109 30.1901 22.9092 31.6362V38.1816C22.9109 39.6277 23.4861 41.0141 24.5087 42.0367C25.5312 43.0592 26.9176 43.6345 28.3637 43.6362H34.9092V44.7271H31.6365C31.3471 44.7271 31.0696 44.842 30.8651 45.0466C30.6605 45.2512 30.5455 45.5287 30.5455 45.818C30.5455 46.1073 30.6605 46.3848 30.8651 46.5894C31.0696 46.794 31.3471 46.9089 31.6365 46.9089H40.3637C40.6531 46.9089 40.9305 46.794 41.1351 46.5894C41.3397 46.3848 41.4546 46.1073 41.4546 45.818C41.4546 45.5287 41.3397 45.2512 41.1351 45.0466C40.9305 44.842 40.6531 44.7271 40.3637 44.7271H37.091V43.6362H43.6365C45.0826 43.6345 46.4689 43.0592 47.4915 42.0367C48.514 41.0141 49.0893 39.6277 49.091 38.1816V31.6362C49.0893 30.1901 48.514 28.8037 47.4915 27.7812C46.4689 26.7586 45.0826 26.1834 43.6365 26.1816ZM46.9092 38.1816C46.9092 39.0496 46.5644 39.8821 45.9506 40.4958C45.3369 41.1096 44.5044 41.4544 43.6365 41.4544H28.3637C27.4957 41.4544 26.6633 41.1096 26.0496 40.4958C25.4358 39.8821 25.091 39.0496 25.091 38.1816V31.6362C25.091 30.7682 25.4358 29.9358 26.0496 29.322C26.6633 28.7083 27.4957 28.3635 28.3637 28.3635H43.6365C44.5044 28.3635 45.3369 28.7083 45.9506 29.322C46.5644 29.9358 46.9092 30.7682 46.9092 31.6362V38.1816Z" fill="white"/>
</g>
<defs>
<clipPath id="clip0_316_3298">
<rect width="26.1818" height="26.1818" fill="white" transform="translate(22.9092 22.9089)"/>
</clipPath>
<clipPath id="clip1_316_3298">
<rect width="26.1818" height="26.1818" fill="white" transform="translate(22.9092 22.9089)"/>
</clipPath>
</defs>
</svg>
