<svg width="26" height="31" viewBox="0 0 26 31" fill="none" xmlns="http://www.w3.org/2000/svg">
<rect x="0.0703125" width="25.4031" height="31" rx="12.7015" fill="white"/>
<path d="M13.142 22.2662L18.1039 16.0157C19.3229 14.4724 19.5006 11.9491 18.3489 10.3363C18.0601 9.92986 17.7085 9.60188 17.3157 9.37239C16.9228 9.1429 16.497 9.01672 16.0641 9.00155C15.6312 8.98638 15.2005 9.08255 14.7981 9.28418C14.3957 9.48581 14.0302 9.78866 13.7239 10.1742L12.7928 11.3549L11.9903 10.3363C10.7651 8.80068 8.762 8.5769 7.48171 10.0276C7.15907 10.3915 6.8987 10.8343 6.71652 11.3292C6.53434 11.824 6.43417 12.3605 6.42213 12.9058C6.41009 13.4511 6.48643 13.9937 6.6465 14.5005C6.80656 15.0074 7.04698 15.4678 7.35306 15.8537L12.4436 22.2662C12.5365 22.3821 12.662 22.4471 12.7928 22.4471C12.9236 22.4471 13.049 22.3821 13.142 22.2662V22.2662Z" stroke="#75BEBD" stroke-width="1.5" stroke-linecap="round" stroke-linejoin="round"/>
</svg>
