<svg width="72" height="72" viewBox="0 0 72 72" fill="none" xmlns="http://www.w3.org/2000/svg">
<circle cx="36" cy="36" r="36" fill="#0D2855"/>
<g clip-path="url(#clip0_316_3309)">
<path d="M44.8769 49.0908C44.4733 49.0896 44.0739 49.0086 43.7019 48.8522C43.3298 48.6959 42.9924 48.4674 42.7092 48.1798L36.0001 41.51L29.291 48.1842C28.8602 48.6214 28.3076 48.9186 27.7053 49.0371C27.1031 49.1556 26.4791 49.0899 25.9147 48.8486C25.3447 48.6193 24.8571 48.2235 24.5155 47.7128C24.174 47.2022 23.9944 46.6004 24.0001 45.986V28.3635C24.0001 26.9168 24.5748 25.5295 25.5977 24.5065C26.6207 23.4836 28.008 22.9089 29.4547 22.9089H42.5456C43.2619 22.9089 43.9712 23.05 44.633 23.3241C45.2947 23.5983 45.896 24 46.4025 24.5065C46.909 25.013 47.3108 25.6143 47.5849 26.2761C47.8591 26.9379 48.0001 27.6472 48.0001 28.3635V45.986C48.0062 46.5999 47.8273 47.2013 47.4865 47.7119C47.1458 48.2225 46.6591 48.6186 46.09 48.8486C45.7057 49.0093 45.2933 49.0916 44.8769 49.0908ZM29.4547 25.0908C28.5867 25.0908 27.7543 25.4356 27.1405 26.0493C26.5268 26.6631 26.182 27.4955 26.182 28.3635V45.986C26.1816 46.1678 26.235 46.3456 26.3357 46.497C26.4363 46.6484 26.5795 46.7666 26.7473 46.8367C26.915 46.9067 27.0997 46.9255 27.2781 46.8906C27.4565 46.8557 27.6206 46.7687 27.7496 46.6406L35.2365 39.1995C35.4409 38.9963 35.7174 38.8823 36.0056 38.8823C36.2938 38.8823 36.5703 38.9963 36.7747 39.1995L44.2529 46.6384C44.3819 46.7665 44.5459 46.8535 44.7243 46.8884C44.9027 46.9233 45.0875 46.9045 45.2552 46.8345C45.4229 46.7644 45.5662 46.6462 45.6668 46.4949C45.7674 46.3435 45.8209 46.1656 45.8205 45.9838V28.3635C45.8205 27.4955 45.4757 26.6631 44.8619 26.0493C44.2482 25.4356 43.4158 25.0908 42.5478 25.0908H29.4547Z" fill="#E8F9FD"/>
</g>
<circle cx="36" cy="36" r="36" fill="#0D2855"/>
<g clip-path="url(#clip1_316_3309)">
<path d="M47.7525 31.3323C47.2409 30.7428 46.6087 30.27 45.8985 29.9461C45.1884 29.6222 44.417 29.4547 43.6365 29.4548H39.2848L39.6514 27.2283C39.7811 26.4442 39.6246 25.6396 39.2105 24.9613C38.7964 24.283 38.1523 23.7761 37.3956 23.5331C36.6389 23.2902 35.8201 23.3273 35.0885 23.6377C34.3569 23.9482 33.7613 24.5113 33.4103 25.2243L31.3223 29.4548H28.3637C26.9176 29.4566 25.5312 30.0318 24.5087 31.0543C23.4861 32.0769 22.9109 33.4633 22.9092 34.9094V40.3639C22.9109 41.81 23.4861 43.1964 24.5087 44.219C25.5312 45.2415 26.9176 45.8167 28.3637 45.8185H42.8728C44.1857 45.8131 45.453 45.3366 46.4442 44.4757C47.4355 43.6148 48.0847 42.4267 48.2739 41.1276L49.043 35.673C49.1513 34.8993 49.0921 34.1113 48.8695 33.3624C48.6468 32.6135 48.2659 31.9212 47.7525 31.3323ZM25.091 40.3639V34.9094C25.091 34.0414 25.4358 33.209 26.0496 32.5952C26.6633 31.9814 27.4957 31.6366 28.3637 31.6366H30.5455V43.6366H28.3637C27.4957 43.6366 26.6633 43.2918 26.0496 42.6781C25.4358 42.0643 25.091 41.2319 25.091 40.3639ZM46.8775 35.3665L46.1074 40.821C45.9948 41.5999 45.6063 42.3125 45.0127 42.8292C44.4191 43.346 43.6598 43.6325 42.8728 43.6366H32.7274V31.3465C32.8302 31.2569 32.9153 31.1488 32.9783 31.0279L35.3663 26.1897C35.4558 26.0282 35.5824 25.8902 35.7357 25.7871C35.8889 25.6841 36.0645 25.6188 36.2478 25.5968C36.4312 25.5747 36.6172 25.5965 36.7905 25.6603C36.9638 25.7242 37.1195 25.8282 37.2448 25.9639C37.352 26.0885 37.4304 26.2353 37.4743 26.3937C37.5182 26.5521 37.5267 26.7182 37.499 26.8803L36.923 30.3712C36.8977 30.5272 36.9066 30.6868 36.9491 30.839C36.9916 30.9912 37.0666 31.1323 37.169 31.2527C37.2714 31.373 37.3987 31.4697 37.5422 31.536C37.6856 31.6023 37.8417 31.6366 37.9997 31.6366H43.6365C44.1049 31.6366 44.5679 31.7371 44.9941 31.9313C45.4204 32.1256 45.8 32.4091 46.1072 32.7627C46.4145 33.1163 46.6423 33.5317 46.7752 33.9809C46.9081 34.4301 46.943 34.9026 46.8775 35.3665Z" fill="white"/>
</g>
<defs>
<clipPath id="clip0_316_3309">
<rect width="26.1818" height="26.1818" fill="white" transform="translate(22.9092 22.9089)"/>
</clipPath>
<clipPath id="clip1_316_3309">
<rect width="26.1818" height="26.1818" fill="white" transform="translate(22.9092 22.9089)"/>
</clipPath>
</defs>
</svg>
